<svg width="32" height="32" viewBox="0 0 32 32" fill="none" xmlns="http://www.w3.org/2000/svg">
  <rect width="32" height="32" rx="8" fill="black"/>
  <path d="M11 9H16.5C18.9853 9 21 11.0147 21 13.5C21 14.8816 20.3743 16.1168 19.3889 16.9318C20.3743 17.7468 21 18.9816 21 20.3636C21 22.9242 18.9242 25 16.3636 25H11V9Z" fill="white"/>
  <path d="M14 12V22H16C17.3807 22 18.5 20.8807 18.5 19.5C18.5 18.1193 17.3807 17 16 17H14V14H16.5C17.8807 14 19 12.8807 19 11.5C19 10.1193 17.8807 9 16.5 9H14V12Z" fill="black"/>
  <!-- Pin detail -->
  <path d="M16 25L16 29L14 25H16Z" fill="black"/>
</svg>
